<svg width="22" height="40" viewBox="0 0 22 40" fill="none" xmlns="http://www.w3.org/2000/svg">
<path d="M0 26.4H4.4C4.4 28.776 7.414 30.8 11 30.8C14.586 30.8 17.6 28.776 17.6 26.4C17.6 23.98 15.312 23.1 10.472 21.934C5.808 20.768 0 19.316 0 13.2C0 9.262 3.234 5.918 7.7 4.796V0H14.3V4.796C18.766 5.918 22 9.262 22 13.2H17.6C17.6 10.824 14.586 8.8 11 8.8C7.414 8.8 4.4 10.824 4.4 13.2C4.4 15.62 6.688 16.5 11.528 17.666C16.192 18.832 22 20.284 22 26.4C22 30.338 18.766 33.682 14.3 34.804V39.6H7.7V34.804C3.234 33.682 0 30.338 0 26.4Z" fill="#707070"/>
</svg>
