<svg width="50" height="41" viewBox="0 0 50 41" fill="none" xmlns="http://www.w3.org/2000/svg">
<path d="M46.475 24.775L49.375 28.3L37.5 40.175L30.625 32.675L33.525 29.775L37.5 33.75L46.475 24.775ZM42.675 0L39.15 3.525C42.775 7.125 45 12.15 45 17.675V18.525C46.7 19.15 48.325 20.075 49.7 21.25C49.875 20.075 50 18.925 50 17.675C50 10.775 47.2 4.525 42.675 0ZM34.9 18.575C36.5 18 38.2 17.675 40 17.675C40 13.55 38.325 9.8 35.6 7.075L32.075 10.6C33.875 12.4 35 14.9 35 17.675C35 17.975 34.925 18.275 34.9 18.575ZM25 12.675C22.25 12.675 20 14.925 20 17.675C20 20.425 22.25 22.675 25 22.675C27.75 22.675 30 20.425 30 17.675C30 14.925 27.75 12.675 25 12.675ZM10.85 3.525L7.325 0C2.8 4.525 0 10.775 0 17.675C0 24.575 2.8 30.825 7.325 35.35L10.85 31.825C7.225 28.225 5 23.225 5 17.675C5 12.15 7.225 7.125 10.85 3.525ZM14.4 7.075C11.675 9.8 10 13.55 10 17.675C10 21.8 11.675 25.55 14.4 28.275L17.925 24.75C16.125 22.95 15 20.45 15 17.675C15 14.9 16.125 12.4 17.925 10.6L14.4 7.075Z" fill="#f4ba2f"/>
</svg>
