<svg width="24" height="27" viewBox="0 0 24 27" fill="none" xmlns="http://www.w3.org/2000/svg">
<path d="M9.33333 20V16H0V10.6667H9.33333V6.66667L16 13.3333L9.33333 20ZM9.33333 0H21.3333C22.0406 0 22.7189 0.280951 23.219 0.781048C23.719 1.28115 24 1.95942 24 2.66667V24C24 24.7072 23.719 25.3855 23.219 25.8856C22.7189 26.3857 22.0406 26.6667 21.3333 26.6667H9.33333C8.62609 26.6667 7.94781 26.3857 7.44772 25.8856C6.94762 25.3855 6.66667 24.7072 6.66667 24V21.3333H9.33333V24H21.3333V2.66667H9.33333V5.33333H6.66667V2.66667C6.66667 1.95942 6.94762 1.28115 7.44772 0.781048C7.94781 0.280951 8.62609 0 9.33333 0Z" fill="#f4ba2f"/>
</svg>
