<svg width="30" height="30" viewBox="0 0 30 30" fill="none" xmlns="http://www.w3.org/2000/svg">
<path d="M22.5 15V1.5C22.5 1.10218 22.342 0.720644 22.0607 0.43934C21.7794 0.158035 21.3978 0 21 0H1.5C1.10218 0 0.720644 0.158035 0.43934 0.43934C0.158035 0.720644 0 1.10218 0 1.5V22.5L6 16.5H21C21.3978 16.5 21.7794 16.342 22.0607 16.0607C22.342 15.7794 22.5 15.3978 22.5 15ZM28.5 6H25.5V19.5H6V22.5C6 22.8978 6.15804 23.2794 6.43934 23.5607C6.72064 23.842 7.10218 24 7.5 24H24L30 30V7.5C30 7.10218 29.842 6.72064 29.5607 6.43934C29.2794 6.15804 28.8978 6 28.5 6Z" fill="#f4ba2f"/>
</svg>
