<svg width="30" height="25" viewBox="0 0 30 25" fill="none" xmlns="http://www.w3.org/2000/svg">
<path style="
    fill: #f4ba2f;
" id="Vector" d="M30 2.86807C28.8958 3.36998 27.7055 3.69981 26.4723 3.85755C27.7342 3.09751 28.7094 1.89293 29.1683 0.444551C27.978 1.16157 26.6587 1.66348 25.2677 1.95029C24.1348 0.717017 22.543 0 20.7361 0C17.3662 0 14.6128 2.75335 14.6128 6.15201C14.6128 6.63958 14.6702 7.11281 14.7706 7.55736C9.66539 7.29924 5.1195 4.84704 2.09369 1.13289C1.5631 2.03633 1.26195 3.09751 1.26195 4.21606C1.26195 6.35277 2.33748 8.2457 4.00096 9.32122C2.98279 9.32122 2.03633 9.03442 1.20459 8.60421C1.20459 8.60421 1.20459 8.60421 1.20459 8.64723C1.20459 11.63 3.32696 14.1252 6.13767 14.6845C5.62142 14.8279 5.07648 14.8996 4.51721 14.8996C4.13002 14.8996 3.74283 14.8566 3.36998 14.7849C4.14436 17.2084 6.39579 19.0153 9.10612 19.0583C7.01243 20.7218 4.35947 21.6969 1.46272 21.6969C0.975143 21.6969 0.487572 21.6683 0 21.6109C2.72467 23.3604 5.96558 24.3786 9.43595 24.3786C20.7361 24.3786 26.9455 15 26.9455 6.86903C26.9455 6.59656 26.9455 6.33843 26.9312 6.06597C28.1358 5.20554 29.1683 4.11568 30 2.86807Z" fill="#f4ba2f"/>
</svg>
