<svg width="30" height="31" viewBox="0 0 30 31" fill="none" xmlns="http://www.w3.org/2000/svg">
<path id="Vector" d="M15.0603 0C6.82914 0 0.120603 6.70854 0.120603 14.9397C0.120603 17.5779 0.81407 20.1407 2.11055 22.402L0 30.1508L7.91457 28.0704C10.1005 29.2613 12.5578 29.8945 15.0603 29.8945C23.2915 29.8945 30 23.1859 30 14.9548C30 10.9598 28.4472 7.20603 25.6281 4.38693C22.809 1.55276 19.0553 0 15.0603 0ZM15.0754 2.51759C18.392 2.51759 21.4975 3.81407 23.8492 6.16583C26.1859 8.51759 27.4824 11.6382 27.4824 14.9548C27.4824 21.799 21.9045 27.3618 15.0603 27.3618C12.8291 27.3618 10.6432 26.7739 8.74372 25.6281L8.29146 25.3719L3.58794 26.608L4.8392 22.0251L4.53769 21.5427C3.30151 19.598 2.63819 17.2915 2.63819 14.9397C2.65327 8.09548 8.21608 2.51759 15.0754 2.51759ZM9.76884 8.03518C9.52764 8.03518 9.1206 8.12563 8.77387 8.50251C8.44221 8.8794 7.46231 9.79899 7.46231 11.6231C7.46231 13.4623 8.80402 15.2261 8.96985 15.4824C9.1809 15.7387 11.6231 19.5075 15.3769 21.1055C16.2663 21.5126 16.9598 21.7387 17.5025 21.9045C18.392 22.191 19.206 22.1457 19.8543 22.0553C20.5779 21.9497 22.0553 21.1508 22.3719 20.2764C22.6884 19.402 22.6884 18.6633 22.598 18.4975C22.4925 18.3467 22.2513 18.2563 21.8744 18.0905C21.4975 17.8794 19.6583 16.9749 19.3266 16.8543C18.9799 16.7337 18.7688 16.6734 18.4824 17.0352C18.2412 17.4121 17.5176 18.2563 17.3065 18.4975C17.0804 18.7538 16.8693 18.7839 16.5075 18.603C16.1156 18.407 14.9095 18.0151 13.4925 16.7487C12.3769 15.7538 11.6382 14.5327 11.4121 14.1558C11.2312 13.794 11.397 13.5678 11.5779 13.402C11.7437 13.2362 11.9849 12.9648 12.1357 12.7387C12.3317 12.5276 12.392 12.3618 12.5126 12.1206C12.6332 11.8643 12.5729 11.6533 12.4824 11.4724C12.392 11.3065 11.6382 9.43719 11.3216 8.69849C11.0201 7.97487 10.7186 8.06533 10.4774 8.05025C10.2663 8.05025 10.0251 8.03518 9.76884 8.03518Z" fill="#f4ba2f"/>
</svg>
